<svg id="Layer_1" data-name="Layer 1" xmlns="http://www.w3.org/2000/svg" viewBox="0 0 512 512"><defs><style>.cls-1{fill:#2b374f;}</style></defs><title>bomb-glyph</title><path class="cls-1" d="M435.2,99.2a12.8,12.8,0,1,0,0-25.6,76.37,76.37,0,0,0-54.76,23.14l-38-38L294.15,107A203.54,203.54,0,0,0,204.8,86.4C91.87,86.4,0,178.27,0,291.2S91.87,496,204.8,496s204.8-91.87,204.8-204.8A203.54,203.54,0,0,0,389,201.85L437.3,153.6l-38.78-38.78A50.92,50.92,0,0,1,435.2,99.2Z"/><path class="cls-1" d="M499.2,73.6H473.6a12.8,12.8,0,0,0,0,25.6h25.6a12.8,12.8,0,1,0,0-25.6Z"/><path class="cls-1" d="M460.8,60.8a12.76,12.76,0,0,0,9.05-3.75l19.2-19.2a12.8,12.8,0,1,0-18.1-18.1l-19.2,19.2A12.8,12.8,0,0,0,460.8,60.8Z"/><path class="cls-1" d="M469.85,115.75a12.8,12.8,0,0,0-18.1,18.1l19.2,19.2a12.8,12.8,0,0,0,18.1-18.1Z"/></svg>
